<svg width="1440" height="782" viewBox="0 0 1440 782" fill="none" xmlns="http://www.w3.org/2000/svg">
<path d="M0 0C0 0 441.519 21.1216 724.651 21.1216C1007.78 21.1216 1449.3 0 1449.3 0V781.5C1449.3 781.5 1007.78 760.378 724.651 760.378C441.519 760.378 0 781.5 0 781.5L0 0Z" fill="#28185C"/>
<path opacity="0.05" d="M1535.38 66.4714C1518.41 38.6903 1493.43 21.9334 1459.97 15.3188C1451.02 13.5549 1442.53 12.673 1434.52 12.673C1389.28 12.673 1352.52 34.7215 1323.77 78.8185C1299.26 116.301 1287.01 157.752 1287.01 203.172C1287.01 237.127 1294.55 266.231 1309.63 290.484C1326.6 318.265 1351.58 335.022 1385.04 341.637C1393.99 343.4 1402.48 344.282 1410.49 344.282C1456.2 344.282 1492.96 322.234 1521.24 278.137C1545.75 240.214 1558 198.762 1558 153.342C1558 118.947 1550.46 90.2837 1535.38 66.4714ZM1476 188.62C1469.4 217.724 1457.62 239.332 1440.18 253.884C1426.51 265.349 1413.79 270.199 1402 267.995C1390.69 265.79 1381.27 256.529 1374.2 239.331C1368.54 225.661 1365.72 211.991 1365.72 199.203C1365.72 188.179 1366.66 177.155 1369.01 167.012C1373.26 148.933 1381.27 131.294 1393.99 114.537C1409.54 92.9295 1426.04 84.1101 1443.01 87.1969C1454.32 89.4017 1463.74 98.6621 1470.81 115.86C1476.47 129.53 1479.3 143.2 1479.3 155.988C1479.3 167.453 1477.88 178.478 1476 188.62Z" fill="white"/>
<ellipse cx="347.41" cy="594.67" rx="2.65946" ry="2.48051" transform="rotate(-180 347.41 594.67)" fill="#70C217"/>
<ellipse cx="308.401" cy="594.67" rx="2.65946" ry="2.48051" transform="rotate(-180 308.401 594.67)" fill="#70C217"/>
<ellipse cx="269.39" cy="594.67" rx="2.65946" ry="2.48051" transform="rotate(-180 269.39 594.67)" fill="#70C217"/>
<ellipse cx="230.381" cy="594.67" rx="2.65946" ry="2.48051" transform="rotate(-180 230.381 594.67)" fill="#70C217"/>
<ellipse cx="191.372" cy="594.67" rx="2.65946" ry="2.48051" transform="rotate(-180 191.372 594.67)" fill="#70C217"/>
<ellipse cx="347.41" cy="558.285" rx="2.65946" ry="2.48051" transform="rotate(-180 347.41 558.285)" fill="#70C217"/>
<ellipse cx="308.401" cy="558.285" rx="2.65946" ry="2.48051" transform="rotate(-180 308.401 558.285)" fill="#70C217"/>
<ellipse cx="269.39" cy="558.285" rx="2.65946" ry="2.48051" transform="rotate(-180 269.39 558.285)" fill="#70C217"/>
<ellipse cx="230.381" cy="558.285" rx="2.65946" ry="2.48051" transform="rotate(-180 230.381 558.285)" fill="#70C217"/>
<ellipse cx="191.372" cy="558.285" rx="2.65946" ry="2.48051" transform="rotate(-180 191.372 558.285)" fill="#70C217"/>
<ellipse cx="347.41" cy="521.9" rx="2.65946" ry="2.48051" transform="rotate(-180 347.41 521.9)" fill="#70C217"/>
<ellipse cx="308.401" cy="521.9" rx="2.65946" ry="2.48051" transform="rotate(-180 308.401 521.9)" fill="#70C217"/>
<ellipse cx="269.39" cy="521.9" rx="2.65946" ry="2.48051" transform="rotate(-180 269.39 521.9)" fill="#70C217"/>
<ellipse cx="230.381" cy="521.9" rx="2.65946" ry="2.48051" transform="rotate(-180 230.381 521.9)" fill="#70C217"/>
<ellipse cx="191.371" cy="521.9" rx="2.65946" ry="2.48051" transform="rotate(-180 191.371 521.9)" fill="#70C217"/>
<ellipse cx="347.41" cy="485.515" rx="2.65946" ry="2.48051" transform="rotate(-180 347.41 485.515)" fill="#70C217"/>
<ellipse cx="308.401" cy="485.515" rx="2.65946" ry="2.48051" transform="rotate(-180 308.401 485.515)" fill="#70C217"/>
<ellipse cx="269.39" cy="485.515" rx="2.65946" ry="2.48051" transform="rotate(-180 269.39 485.515)" fill="#70C217"/>
<ellipse cx="230.381" cy="485.515" rx="2.65946" ry="2.48051" transform="rotate(-180 230.381 485.515)" fill="#70C217"/>
<ellipse cx="191.371" cy="485.515" rx="2.65946" ry="2.48051" transform="rotate(-180 191.371 485.515)" fill="#70C217"/>
<ellipse cx="347.41" cy="449.13" rx="2.65946" ry="2.48051" transform="rotate(-180 347.41 449.13)" fill="#70C217"/>
<ellipse cx="308.401" cy="449.13" rx="2.65946" ry="2.48051" transform="rotate(-180 308.401 449.13)" fill="#70C217"/>
<ellipse cx="269.39" cy="449.13" rx="2.65946" ry="2.48051" transform="rotate(-180 269.39 449.13)" fill="#70C217"/>
<ellipse cx="230.381" cy="449.13" rx="2.65946" ry="2.48051" transform="rotate(-180 230.381 449.13)" fill="#70C217"/>
<ellipse cx="191.371" cy="449.13" rx="2.65946" ry="2.48051" transform="rotate(-180 191.371 449.13)" fill="#70C217"/>
<ellipse cx="347.41" cy="412.746" rx="2.65946" ry="2.48051" transform="rotate(-180 347.41 412.746)" fill="#70C217"/>
<ellipse cx="308.401" cy="412.746" rx="2.65946" ry="2.48051" transform="rotate(-180 308.401 412.746)" fill="#70C217"/>
<ellipse cx="269.39" cy="412.746" rx="2.65946" ry="2.48051" transform="rotate(-180 269.39 412.746)" fill="#70C217"/>
<ellipse cx="230.381" cy="412.746" rx="2.65946" ry="2.48051" transform="rotate(-180 230.381 412.746)" fill="#70C217"/>
<ellipse cx="191.372" cy="412.746" rx="2.65946" ry="2.48051" transform="rotate(-180 191.372 412.746)" fill="#70C217"/>
<ellipse cx="347.41" cy="376.36" rx="2.65946" ry="2.48051" transform="rotate(-180 347.41 376.36)" fill="#70C217"/>
<ellipse cx="308.401" cy="376.36" rx="2.65946" ry="2.48051" transform="rotate(-180 308.401 376.36)" fill="#70C217"/>
<ellipse cx="269.39" cy="376.36" rx="2.65946" ry="2.48051" transform="rotate(-180 269.39 376.36)" fill="#70C217"/>
<ellipse cx="230.381" cy="376.36" rx="2.65946" ry="2.48051" transform="rotate(-180 230.381 376.36)" fill="#70C217"/>
<ellipse cx="191.371" cy="376.36" rx="2.65946" ry="2.48051" transform="rotate(-180 191.371 376.36)" fill="#70C217"/>
<ellipse cx="347.41" cy="339.976" rx="2.65946" ry="2.48051" transform="rotate(-180 347.41 339.976)" fill="#70C217"/>
<ellipse cx="308.401" cy="339.976" rx="2.65946" ry="2.48051" transform="rotate(-180 308.401 339.976)" fill="#70C217"/>
<ellipse cx="269.39" cy="339.976" rx="2.65946" ry="2.48051" transform="rotate(-180 269.39 339.976)" fill="#70C217"/>
<ellipse cx="230.381" cy="339.976" rx="2.65946" ry="2.48051" transform="rotate(-180 230.381 339.976)" fill="#70C217"/>
<ellipse cx="191.371" cy="339.975" rx="2.65946" ry="2.48051" transform="rotate(-180 191.371 339.975)" fill="#70C217"/>
<ellipse cx="347.41" cy="303.591" rx="2.65946" ry="2.48051" transform="rotate(-180 347.41 303.591)" fill="#70C217"/>
<ellipse cx="308.401" cy="303.591" rx="2.65946" ry="2.48051" transform="rotate(-180 308.401 303.591)" fill="#70C217"/>
<ellipse cx="269.39" cy="303.591" rx="2.65946" ry="2.48051" transform="rotate(-180 269.39 303.591)" fill="#70C217"/>
<ellipse cx="230.381" cy="303.591" rx="2.65946" ry="2.48051" transform="rotate(-180 230.381 303.591)" fill="#70C217"/>
<ellipse cx="191.371" cy="303.591" rx="2.65946" ry="2.48051" transform="rotate(-180 191.371 303.591)" fill="#70C217"/>
<ellipse cx="347.41" cy="267.206" rx="2.65946" ry="2.48051" transform="rotate(-180 347.41 267.206)" fill="#70C217"/>
<ellipse cx="308.401" cy="267.206" rx="2.65946" ry="2.48051" transform="rotate(-180 308.401 267.206)" fill="#70C217"/>
<ellipse cx="269.39" cy="267.206" rx="2.65946" ry="2.48051" transform="rotate(-180 269.39 267.206)" fill="#70C217"/>
<ellipse cx="230.381" cy="267.206" rx="2.65946" ry="2.48051" transform="rotate(-180 230.381 267.206)" fill="#70C217"/>
<ellipse cx="191.371" cy="267.206" rx="2.65946" ry="2.48051" transform="rotate(-180 191.371 267.206)" fill="#70C217"/>
<ellipse cx="972.636" cy="677.469" rx="2.48051" ry="2.65946" transform="rotate(-90 972.636 677.469)" fill="#70C217"/>
<ellipse cx="972.636" cy="641.085" rx="2.48051" ry="2.65946" transform="rotate(-90 972.636 641.085)" fill="#70C217"/>
<ellipse cx="972.636" cy="604.7" rx="2.48051" ry="2.65946" transform="rotate(-90 972.636 604.7)" fill="#70C217"/>
<ellipse cx="972.636" cy="568.315" rx="2.48051" ry="2.65946" transform="rotate(-90 972.636 568.315)" fill="#70C217"/>
<ellipse cx="972.636" cy="531.93" rx="2.48051" ry="2.65946" transform="rotate(-90 972.636 531.93)" fill="#70C217"/>
<ellipse cx="1011.65" cy="677.47" rx="2.48051" ry="2.65946" transform="rotate(-90 1011.65 677.47)" fill="#70C217"/>
<ellipse cx="1011.65" cy="641.085" rx="2.48051" ry="2.65946" transform="rotate(-90 1011.65 641.085)" fill="#70C217"/>
<ellipse cx="1011.65" cy="604.7" rx="2.48051" ry="2.65946" transform="rotate(-90 1011.65 604.7)" fill="#70C217"/>
<ellipse cx="1011.65" cy="568.315" rx="2.48051" ry="2.65946" transform="rotate(-90 1011.65 568.315)" fill="#70C217"/>
<ellipse cx="1011.65" cy="531.93" rx="2.48051" ry="2.65946" transform="rotate(-90 1011.65 531.93)" fill="#70C217"/>
<ellipse cx="1050.66" cy="677.47" rx="2.48051" ry="2.65946" transform="rotate(-90 1050.66 677.47)" fill="#70C217"/>
<ellipse cx="1050.66" cy="641.085" rx="2.48051" ry="2.65946" transform="rotate(-90 1050.66 641.085)" fill="#70C217"/>
<ellipse cx="1050.66" cy="604.7" rx="2.48051" ry="2.65946" transform="rotate(-90 1050.66 604.7)" fill="#70C217"/>
<ellipse cx="1050.66" cy="568.315" rx="2.48051" ry="2.65946" transform="rotate(-90 1050.66 568.315)" fill="#70C217"/>
<ellipse cx="1050.66" cy="531.93" rx="2.48051" ry="2.65946" transform="rotate(-90 1050.66 531.93)" fill="#70C217"/>
<ellipse cx="1089.66" cy="677.47" rx="2.48051" ry="2.65946" transform="rotate(-90 1089.66 677.47)" fill="#70C217"/>
<ellipse cx="1089.67" cy="641.085" rx="2.48051" ry="2.65946" transform="rotate(-90 1089.67 641.085)" fill="#70C217"/>
<ellipse cx="1089.67" cy="604.7" rx="2.48051" ry="2.65946" transform="rotate(-90 1089.67 604.7)" fill="#70C217"/>
<ellipse cx="1089.67" cy="568.315" rx="2.48051" ry="2.65946" transform="rotate(-90 1089.67 568.315)" fill="#70C217"/>
<ellipse cx="1089.67" cy="531.93" rx="2.48051" ry="2.65946" transform="rotate(-90 1089.67 531.93)" fill="#70C217"/>
<ellipse cx="1128.67" cy="677.47" rx="2.48051" ry="2.65946" transform="rotate(-90 1128.67 677.47)" fill="#70C217"/>
<ellipse cx="1128.67" cy="641.085" rx="2.48051" ry="2.65946" transform="rotate(-90 1128.67 641.085)" fill="#70C217"/>
<ellipse cx="1128.67" cy="604.7" rx="2.48051" ry="2.65946" transform="rotate(-90 1128.67 604.7)" fill="#70C217"/>
<ellipse cx="1128.67" cy="568.315" rx="2.48051" ry="2.65946" transform="rotate(-90 1128.67 568.315)" fill="#70C217"/>
<ellipse cx="1128.67" cy="531.93" rx="2.48051" ry="2.65946" transform="rotate(-90 1128.67 531.93)" fill="#70C217"/>
<ellipse cx="1167.69" cy="677.47" rx="2.48051" ry="2.65946" transform="rotate(-90 1167.69 677.47)" fill="#70C217"/>
<ellipse cx="1167.69" cy="641.085" rx="2.48051" ry="2.65946" transform="rotate(-90 1167.69 641.085)" fill="#70C217"/>
<ellipse cx="1167.69" cy="604.7" rx="2.48051" ry="2.65946" transform="rotate(-90 1167.69 604.7)" fill="#70C217"/>
<ellipse cx="1167.69" cy="568.315" rx="2.48051" ry="2.65946" transform="rotate(-90 1167.69 568.315)" fill="#70C217"/>
<ellipse cx="1167.69" cy="531.93" rx="2.48051" ry="2.65946" transform="rotate(-90 1167.69 531.93)" fill="#70C217"/>
<ellipse cx="1206.69" cy="677.47" rx="2.48051" ry="2.65946" transform="rotate(-90 1206.69 677.47)" fill="#70C217"/>
<ellipse cx="1206.69" cy="641.085" rx="2.48051" ry="2.65946" transform="rotate(-90 1206.69 641.085)" fill="#70C217"/>
<ellipse cx="1206.69" cy="604.7" rx="2.48051" ry="2.65946" transform="rotate(-90 1206.69 604.7)" fill="#70C217"/>
<ellipse cx="1206.69" cy="568.315" rx="2.48051" ry="2.65946" transform="rotate(-90 1206.69 568.315)" fill="#70C217"/>
<ellipse cx="1206.69" cy="531.93" rx="2.48051" ry="2.65946" transform="rotate(-90 1206.69 531.93)" fill="#70C217"/>
<ellipse cx="1245.7" cy="677.47" rx="2.48051" ry="2.65946" transform="rotate(-90 1245.7 677.47)" fill="#70C217"/>
<ellipse cx="1245.7" cy="641.085" rx="2.48051" ry="2.65946" transform="rotate(-90 1245.7 641.085)" fill="#70C217"/>
<ellipse cx="1245.7" cy="604.7" rx="2.48051" ry="2.65946" transform="rotate(-90 1245.7 604.7)" fill="#70C217"/>
<ellipse cx="1245.7" cy="568.315" rx="2.48051" ry="2.65946" transform="rotate(-90 1245.7 568.315)" fill="#70C217"/>
<ellipse cx="1245.7" cy="531.93" rx="2.48051" ry="2.65946" transform="rotate(-90 1245.7 531.93)" fill="#70C217"/>
<ellipse cx="1284.71" cy="677.47" rx="2.48051" ry="2.65946" transform="rotate(-90 1284.71 677.47)" fill="#70C217"/>
<ellipse cx="1284.71" cy="641.085" rx="2.48051" ry="2.65946" transform="rotate(-90 1284.71 641.085)" fill="#70C217"/>
<ellipse cx="1284.71" cy="604.7" rx="2.48051" ry="2.65946" transform="rotate(-90 1284.71 604.7)" fill="#70C217"/>
<ellipse cx="1284.71" cy="568.315" rx="2.48051" ry="2.65946" transform="rotate(-90 1284.71 568.315)" fill="#70C217"/>
<ellipse cx="1284.71" cy="531.93" rx="2.48051" ry="2.65946" transform="rotate(-90 1284.71 531.93)" fill="#70C217"/>
<ellipse cx="1323.72" cy="677.47" rx="2.48051" ry="2.65946" transform="rotate(-90 1323.72 677.47)" fill="#70C217"/>
<ellipse cx="1323.72" cy="641.085" rx="2.48051" ry="2.65946" transform="rotate(-90 1323.72 641.085)" fill="#70C217"/>
<ellipse cx="1323.72" cy="604.7" rx="2.48051" ry="2.65946" transform="rotate(-90 1323.72 604.7)" fill="#70C217"/>
<ellipse cx="1323.72" cy="568.315" rx="2.48051" ry="2.65946" transform="rotate(-90 1323.72 568.315)" fill="#70C217"/>
<ellipse cx="1323.72" cy="531.93" rx="2.48051" ry="2.65946" transform="rotate(-90 1323.72 531.93)" fill="#70C217"/>
<path d="M479.716 262.26C479.716 339.066 412.921 401.548 330.245 401.548C247.569 401.548 180.773 339.066 180.773 262.26C180.773 185.454 247.569 122.972 330.245 122.972C412.921 122.972 479.716 185.454 479.716 262.26Z" stroke="#FFBA49" stroke-width="3.75"/>
<path d="M1283.63 469.604C1283.63 519.386 1240.32 559.96 1186.62 559.96C1132.91 559.96 1089.61 519.386 1089.61 469.604C1089.61 419.823 1132.91 379.248 1186.62 379.248C1240.32 379.248 1283.63 419.823 1283.63 469.604Z" stroke="#FFBA49" stroke-width="3.75"/>
<path d="M210.991 112.297C210.991 123.778 200.972 133.303 188.334 133.303C175.695 133.303 165.676 123.778 165.676 112.297C165.676 100.816 175.695 91.2899 188.334 91.2899C200.972 91.2899 210.991 100.816 210.991 112.297Z" stroke="#FFBA49" stroke-width="3.75"/>
<path d="M980.178 384.766C980.178 396.246 970.159 405.772 957.52 405.772C944.882 405.772 934.863 396.246 934.863 384.766C934.863 373.285 944.882 363.759 957.52 363.759C970.159 363.759 980.178 373.285 980.178 384.766Z" stroke="#FFBA49" stroke-width="3.75"/>
</svg>
